# xmcd
#
# Track frame offsets: 
#        150
#        20297
#        41024
#        68522
#        96808
#        111808
#        135795
#        162838
#        190656
#        196460
#        212748
#        226508
#
# Disc length: 3249 seconds
#
# Revision: 0
# Processed by: cddbd v1.5.2PL0 Copyright (c) Steve Scherf et al.
# Submitted via: ExactAudioCopy v0.99pb5
#
DISCID=8d0caf0c
DTITLE=Van Der Graaf Generator  - The Quiet Zone - The Pleasure Dome 1
DTITLE=977  (Remastered)
DYEAR=1900
DGENRE=
TTITLE0=Lizard Play
TTITLE1=The Habit Of The Broken Heart
TTITLE2=The Siren Song
TTITLE3=Last Frame
TTITLE4=The Wave
TTITLE5=Cat's Eye - Yellow Fever (Running)
TTITLE6=The Sphinx In The Face
TTITLE7=Chemical World
TTITLE8=The Sphinx Returns
TTITLE9=Door (bonus)
TTITLE10=Ship Of Fools (single B-side)
TTITLE11=The Wave (demo version)
EXTD=
EXTT0=
EXTT1=
EXTT2=
EXTT3=
EXTT4=
EXTT5=
EXTT6=
EXTT7=
EXTT8=
EXTT9=
EXTT10=
EXTT11=
PLAYORDER=
